<?xml version="1.0" encoding="UTF-8"?>
<svg id="a" data-name="Capa 1" xmlns="http://www.w3.org/2000/svg" xmlns:xlink="http://www.w3.org/1999/xlink" viewBox="0 0 212.58 80.72">
  <defs>
    <style>
      .m {
        fill: url(#j);
      }

      .n {
        fill: url(#g);
      }

      .o {
        fill: url(#h);
      }

      .p {
        fill: url(#i);
      }

      .q {
        fill: url(#k);
      }

      .r {
        fill: url(#l);
      }

      .s {
        fill: url(#f);
      }

      .t {
        fill: url(#d);
      }

      .u {
        fill: url(#e);
      }

      .v {
        fill: url(#c);
      }

      .w {
        fill: url(#b);
      }

      .x {
        fill: #0087b1;
      }

      .y {
        fill: #fff;
      }

      .z {
        fill: #132b6d;
      }

      .aa {
        fill: #051b3f;
        opacity: .2;
      }
    </style>
    <radialGradient id="b" data-name="Degradado sin nombre 7" cx="16.16" cy="60.94" fx="16.16" fy="60.94" r="27.88" gradientUnits="userSpaceOnUse">
      <stop offset="0" stop-color="#007eff"/>
      <stop offset=".41" stop-color="#0068d5"/>
      <stop offset="1" stop-color="#004899"/>
    </radialGradient>
    <radialGradient id="c" data-name="Degradado sin nombre 24" cx="22.13" cy="41.15" fx="22.13" fy="41.15" r="36.02" gradientTransform="translate(61.19 19.2) rotate(90.26) scale(1 .95)" gradientUnits="userSpaceOnUse">
      <stop offset=".6" stop-color="#007eff" stop-opacity="0"/>
      <stop offset=".64" stop-color="#026fe3" stop-opacity=".08"/>
      <stop offset=".86" stop-color="#0f2b68" stop-opacity=".46"/>
      <stop offset="1" stop-color="#14133b" stop-opacity=".6"/>
    </radialGradient>
    <radialGradient id="d" data-name="Degradado sin nombre 9" cx="19.29" cy="58.4" fx="19.29" fy="58.4" r="15.74" gradientUnits="userSpaceOnUse">
      <stop offset="0" stop-color="#fff" stop-opacity="0"/>
      <stop offset=".41" stop-color="#fff" stop-opacity="0"/>
      <stop offset=".59" stop-color="#fff" stop-opacity=".04"/>
      <stop offset=".73" stop-color="#fff" stop-opacity=".09"/>
      <stop offset=".85" stop-color="#fff" stop-opacity=".16"/>
      <stop offset=".95" stop-color="#fff" stop-opacity=".25"/>
      <stop offset="1" stop-color="#fff" stop-opacity=".3"/>
    </radialGradient>
    <linearGradient id="e" data-name="Degradado sin nombre 6" x1="22.92" y1="71.6" x2="22.92" y2="49.11" gradientUnits="userSpaceOnUse">
      <stop offset="0" stop-color="#007eff"/>
      <stop offset=".41" stop-color="#0068d5"/>
      <stop offset="1" stop-color="#004899"/>
    </linearGradient>
    <linearGradient id="f" data-name="Degradado sin nombre 6" x1="22.95" y1="62.28" x2="22.95" y2="45.8" xlink:href="#e"/>
    <linearGradient id="g" data-name="Degradado sin nombre 79" x1="9.68" y1="7.23" x2="22.26" y2="7.23" gradientUnits="userSpaceOnUse">
      <stop offset="0" stop-color="#4fd272"/>
      <stop offset=".23" stop-color="#4bce74"/>
      <stop offset=".45" stop-color="#3fc57a"/>
      <stop offset=".67" stop-color="#2bb584"/>
      <stop offset=".89" stop-color="#109f93"/>
      <stop offset="1" stop-color="#00929c"/>
    </linearGradient>
    <radialGradient id="h" data-name="Degradado sin nombre 71" cx="19.03" cy="18.8" fx="19.03" fy="18.8" r="30.24" gradientUnits="userSpaceOnUse">
      <stop offset=".16" stop-color="#4fd272"/>
      <stop offset=".26" stop-color="#45ca77"/>
      <stop offset=".42" stop-color="#2bb584"/>
      <stop offset=".63" stop-color="#02939a"/>
      <stop offset=".64" stop-color="#00929c"/>
    </radialGradient>
    <linearGradient id="i" data-name="Degradado sin nombre 46" x1="2.35" y1="43.84" x2="40.43" y2="43.84" gradientUnits="userSpaceOnUse">
      <stop offset="0" stop-color="#0087b1" stop-opacity="0"/>
      <stop offset=".02" stop-color="#058cac" stop-opacity=".08"/>
      <stop offset=".07" stop-color="#199e9c" stop-opacity=".32"/>
      <stop offset=".13" stop-color="#29ae8f" stop-opacity=".53"/>
      <stop offset=".19" stop-color="#37bb85" stop-opacity=".7"/>
      <stop offset=".24" stop-color="#41c57c" stop-opacity=".83"/>
      <stop offset=".3" stop-color="#49cc76" stop-opacity=".92"/>
      <stop offset=".36" stop-color="#4dd073" stop-opacity=".98"/>
      <stop offset=".42" stop-color="#4fd272"/>
      <stop offset=".52" stop-color="#4dd072" stop-opacity=".98"/>
      <stop offset=".6" stop-color="#49cd76" stop-opacity=".93"/>
      <stop offset=".67" stop-color="#43c67b" stop-opacity=".85"/>
      <stop offset=".75" stop-color="#3abe82" stop-opacity=".74"/>
      <stop offset=".82" stop-color="#2eb28c" stop-opacity=".58"/>
      <stop offset=".89" stop-color="#1fa497" stop-opacity=".4"/>
      <stop offset=".95" stop-color="#0e94a5" stop-opacity=".18"/>
      <stop offset="1" stop-color="#0087b1" stop-opacity="0"/>
    </linearGradient>
    <linearGradient id="j" data-name="Degradado sin nombre 75" x1="8.19" y1="25.78" x2="37.67" y2="25.78" gradientUnits="userSpaceOnUse">
      <stop offset="0" stop-color="#86d881"/>
      <stop offset=".13" stop-color="#84d780" stop-opacity=".98"/>
      <stop offset=".27" stop-color="#81d77f" stop-opacity=".92"/>
      <stop offset=".41" stop-color="#7cd67e" stop-opacity=".83"/>
      <stop offset=".55" stop-color="#75d67c" stop-opacity=".7"/>
      <stop offset=".68" stop-color="#6cd579" stop-opacity=".53"/>
      <stop offset=".82" stop-color="#60d376" stop-opacity=".32"/>
      <stop offset=".96" stop-color="#53d273" stop-opacity=".08"/>
      <stop offset="1" stop-color="#4fd272" stop-opacity="0"/>
    </linearGradient>
    <radialGradient id="k" data-name="Degradado sin nombre 84" cx="753.33" cy="-625.92" fx="753.33" fy="-625.92" r="14.74" gradientTransform="translate(-597.25 455.46) scale(.82 .68)" gradientUnits="userSpaceOnUse">
      <stop offset="0" stop-color="#fff" stop-opacity="0"/>
      <stop offset=".29" stop-color="#fff" stop-opacity=".01"/>
      <stop offset=".47" stop-color="#fff" stop-opacity=".04"/>
      <stop offset=".63" stop-color="#fff" stop-opacity=".1"/>
      <stop offset=".77" stop-color="#fff" stop-opacity=".19"/>
      <stop offset=".9" stop-color="#fff" stop-opacity=".29"/>
      <stop offset="1" stop-color="#fff" stop-opacity=".4"/>
    </radialGradient>
    <linearGradient id="l" data-name="Degradado sin nombre 75" x1="65.51" y1="-309.39" x2="78.09" y2="-309.39" gradientTransform="translate(-36.24 264.81) rotate(1.93) scale(.84) skewX(3.86)" xlink:href="#j"/>
  </defs>
  <g>
    <path class="z" d="m58.78,64.57c0-1.86,1.17-3.13,2.9-3.13,1.35,0,2.23.52,2.61,1.64l-1.32.24c-.23-.51-.65-.75-1.28-.75-.95,0-1.58.78-1.58,2.01s.62,2,1.59,2c.83,0,1.39-.48,1.44-1.4h-1.46v-1.03h2.82c.02.19.02.35.02.52,0,1.88-1.1,3.03-2.88,3.03s-2.87-1.23-2.87-3.14Z"/>
    <path class="z" d="m65.57,61.53h4.04v1.19h-2.71v1.32h2.55v1.04h-2.55v1.37h2.71v1.19h-4.04v-6.1Z"/>
    <path class="z" d="m70.16,65.98l1.27-.17c.19.55.65.84,1.31.84s1.05-.27,1.05-.72c-.02-1.2-3.41-.41-3.41-2.71,0-1.07.91-1.79,2.22-1.79s2.22.56,2.45,1.65l-1.22.17c-.19-.49-.58-.74-1.19-.74s-.96.26-.96.68c0,1.3,3.45.37,3.45,2.69,0,1.1-.94,1.83-2.38,1.83-1.35,0-2.33-.62-2.59-1.74Z"/>
    <path class="z" d="m77.05,62.72h-1.49v-1.19h4.3v1.19h-1.48v4.92h-1.33v-4.92Z"/>
    <path class="z" d="m80.74,61.53h1.33v6.1h-1.33v-6.1Z"/>
    <path class="z" d="m83.12,64.59c0-2.17,1.37-3.13,2.9-3.13s2.89.95,2.89,3.13-1.37,3.14-2.91,3.14-2.88-.92-2.88-3.14Zm4.46,0c0-1.23-.62-1.94-1.57-1.94s-1.58.71-1.58,1.94.61,1.95,1.58,1.95,1.58-.68,1.58-1.95Zm-1.38-5.05h1.18l-.92,1.48h-.92l.66-1.48Z"/>
    <path class="z" d="m89.95,61.53h1.31l2.62,4.01v-4.01h1.33v6.1h-1.3l-2.63-4.03v4.03h-1.33v-6.1Z"/>
    <path class="z" d="m100.45,65.97l-2.37-4.44h1.48l1.55,3.06,1.56-3.06h1.5l-2.39,4.44v1.67h-1.33v-1.67Z"/>
    <path class="z" d="m106.84,64.6c0-2.17,1.43-3.15,2.92-3.15,1.14,0,2.39.57,2.75,2.18l-1.31.23c-.21-.81-.78-1.19-1.45-1.19-.91,0-1.53.72-1.53,1.92s.62,1.91,1.53,1.91c.67,0,1.26-.39,1.45-1.22l1.32.23c-.35,1.64-1.61,2.22-2.76,2.22-1.48,0-2.92-.91-2.92-3.14Z"/>
    <path class="z" d="m113.26,64.59c0-2.17,1.37-3.13,2.9-3.13s2.89.95,2.89,3.13-1.37,3.14-2.91,3.14-2.88-.92-2.88-3.14Zm4.46,0c0-1.23-.62-1.94-1.57-1.94s-1.58.71-1.58,1.94.61,1.95,1.58,1.95,1.58-.68,1.58-1.95Z"/>
    <path class="z" d="m120.09,61.53h1.31l2.62,4.01v-4.01h1.33v6.1h-1.3l-2.63-4.03v4.03h-1.33v-6.1Z"/>
    <path class="z" d="m127.72,62.72h-1.49v-1.19h4.3v1.19h-1.48v4.92h-1.33v-4.92Z"/>
    <path class="z" d="m134.79,67.64l-1.07-1.96c-.11,0-.22,0-.33,0h-.64v1.95h-1.34v-6.1h1.97c1.96,0,2.77.66,2.77,2.05,0,.88-.39,1.52-1.2,1.86l1.35,2.2h-1.51Zm-1.34-2.95c.94,0,1.36-.25,1.36-1.01s-.42-1.02-1.36-1.02h-.71v2.03h.71Z"/>
    <path class="z" d="m136.96,64.59c0-2.17,1.37-3.13,2.9-3.13s2.89.95,2.89,3.13-1.37,3.14-2.91,3.14-2.88-.92-2.88-3.14Zm4.46,0c0-1.23-.62-1.94-1.57-1.94s-1.58.71-1.58,1.94.61,1.95,1.58,1.95,1.58-.68,1.58-1.95Z"/>
    <path class="z" d="m143.79,61.53h1.33v4.92h2.26v1.19h-3.59v-6.1Z"/>
    <path class="z" d="m150.54,61.53h1.75c2.47,0,3.43,1.05,3.43,3.05s-.96,3.05-3.43,3.05h-1.75v-6.1Zm1.8,4.92c1.53,0,2.03-.6,2.03-1.87s-.5-1.87-2.04-1.87h-.46v3.74h.46Z"/>
    <path class="z" d="m156.75,61.53h4.04v1.19h-2.71v1.32h2.55v1.04h-2.55v1.37h2.71v1.19h-4.04v-6.1Z"/>
    <path class="z" d="m163.95,64.6c0-2.17,1.43-3.15,2.92-3.15,1.14,0,2.39.57,2.75,2.18l-1.31.23c-.21-.81-.78-1.19-1.45-1.19-.91,0-1.53.72-1.53,1.92s.62,1.91,1.53,1.91c.67,0,1.26-.39,1.45-1.22l1.31.23c-.35,1.64-1.61,2.22-2.76,2.22-1.48,0-2.92-.91-2.92-3.14Z"/>
    <path class="z" d="m170.37,64.59c0-2.17,1.37-3.13,2.9-3.13s2.89.95,2.89,3.13-1.37,3.14-2.91,3.14-2.88-.92-2.88-3.14Zm4.46,0c0-1.23-.62-1.94-1.57-1.94s-1.58.71-1.58,1.94.61,1.95,1.58,1.95,1.58-.68,1.58-1.95Z"/>
    <path class="z" d="m176.79,65.98l1.27-.17c.19.55.65.84,1.31.84s1.05-.27,1.05-.72c-.02-1.2-3.41-.41-3.41-2.71,0-1.07.91-1.79,2.22-1.79s2.22.56,2.45,1.65l-1.22.17c-.19-.49-.58-.74-1.19-.74s-.96.26-.96.68c0,1.3,3.45.37,3.45,2.69,0,1.1-.94,1.83-2.38,1.83-1.35,0-2.33-.62-2.59-1.74Z"/>
    <path class="z" d="m182.63,61.53h4.04v1.19h-2.71v1.32h2.55v1.04h-2.55v1.37h2.71v1.19h-4.04v-6.1Z"/>
    <path class="z" d="m187.47,64.6c0-2.17,1.43-3.15,2.92-3.15,1.14,0,2.39.57,2.75,2.18l-1.31.23c-.21-.81-.78-1.19-1.45-1.19-.91,0-1.53.72-1.53,1.92s.62,1.91,1.53,1.91c.67,0,1.26-.39,1.45-1.22l1.31.23c-.35,1.64-1.61,2.22-2.76,2.22-1.48,0-2.92-.91-2.92-3.14Z"/>
    <path class="z" d="m194.1,61.53h1.33v2.44h2.34v-2.44h1.33v6.1h-1.33v-2.5h-2.34v2.5h-1.33v-6.1Z"/>
    <path class="z" d="m204.05,66.57h-2.61l-.39,1.06h-1.4l2.42-6.1h1.35l2.43,6.1h-1.41l-.39-1.06Zm-.35-.98l-.95-2.61-.95,2.61h1.91Z"/>
    <path class="z" d="m205.97,65.98l1.27-.17c.19.55.65.84,1.31.84s1.05-.27,1.05-.72c-.02-1.2-3.41-.41-3.41-2.71,0-1.07.91-1.79,2.22-1.79s2.22.56,2.45,1.65l-1.22.17c-.19-.49-.58-.74-1.19-.74s-.96.26-.96.68c0,1.3,3.45.37,3.45,2.69,0,1.1-.94,1.83-2.38,1.83-1.35,0-2.33-.62-2.59-1.74Z"/>
  </g>
  <g>
    <path class="z" d="m58.36,39.33c0-7.07,4.09-10.93,9.31-10.93,2.98,0,5.67,1.47,6.74,3.98v-3.57h5.6v21.02h-5.6v-3.42c-1.03,2.43-3.76,3.94-6.7,3.94-5.23,0-9.35-3.94-9.35-11.01Zm16.24,0c0-3.94-2.21-6.3-5.34-6.3s-5.3,2.32-5.3,6.3,2.21,6.33,5.34,6.33,5.3-2.36,5.3-6.33Z"/>
    <path class="z" d="m84.16,51.26l5.34-1.21c.74,1.91,2.61,3.13,5.04,3.13,3.39,0,5.23-1.73,5.23-6v-1.99c-1.03,2.5-3.76,3.64-6.7,3.64-5.27,0-9.35-3.57-9.35-10.2s4.05-10.16,9.31-10.16c2.98,0,5.71,1.14,6.74,3.72v-3.39h5.6v17.34c0,7.92-3.61,11.23-10.86,11.23-5.34,0-9.02-2.21-10.35-6.11Zm15.76-12.63c0-3.79-2.17-6.08-5.34-6.08s-5.3,2.28-5.3,6.08,2.21,6.11,5.34,6.11,5.3-2.25,5.3-6.11Z"/>
    <path class="z" d="m109.82,28.8h5.6v3.17c.74-1.95,2.91-3.9,7.11-3.42l-.55,5.3c-4.2-.77-6.55,1.18-6.55,6.08v9.94h-5.6v-21.06Z"/>
    <path class="z" d="m124.47,23.24c0-1.84,1.36-2.83,3.2-2.83,1.73,0,3.2.99,3.2,2.83s-1.47,2.83-3.2,2.83c-1.84,0-3.2-1.03-3.2-2.83Zm.4,5.56h5.56v21.06h-5.56v-21.06Z"/>
    <path class="z" d="m133.38,44.48l5.08-.85c.77,1.66,2.58,2.61,4.97,2.61s3.94-.85,3.94-2.32c0-4.2-13.29-.77-13.22-9.2.07-3.79,3.83-6.3,9.06-6.3,4.34,0,8.25,2.02,9.28,5.3l-5.01.88c-.63-1.44-2.25-2.28-4.12-2.28-2.32,0-3.68.81-3.68,2.21,0,4.2,13.33.44,13.33,8.87,0,4.2-3.72,6.81-9.61,6.81-5.23,0-8.98-2.32-10.02-5.74Z"/>
    <path class="z" d="m155.25,39.33c0-7.58,5.37-10.93,10.9-10.93s10.86,3.35,10.86,10.93-5.34,11.01-10.86,11.01-10.9-3.35-10.9-11.01Zm16.2,0c0-3.94-2.21-6.3-5.34-6.3s-5.3,2.32-5.3,6.3,2.21,6.33,5.34,6.33,5.3-2.36,5.3-6.33Z"/>
    <path class="z" d="m181.09,33.03h-2.83v-4.23h2.83v-.77c0-4.79,2.72-7.18,8.03-7.18,1.51,0,3.24.15,4.2.37l-.66,3.96c-.77-.15-1.58-.2-2.28-.2-2.47,0-3.61.99-3.61,3.13v.7h5.29l-.71,4.23h-4.58v16.83h-5.67v-16.83Z"/>
    <path class="z" d="m194.79,41.46v-16.46l5.63-1.18v4.97h5.74v4.23h-5.74v7.92c0,3.57,1.03,4.82,3.79,4.82.44,0,.92-.07,1.69-.18l.74,4.23c-.85.22-2.28.37-3.39.37-5.74,0-8.47-2.32-8.47-8.73Z"/>
  </g>
  <g>
    <path class="w" d="m42.56,46.17h0c-.06-.1-.12-.2-.18-.31-.09-.16-.18-.32-.28-.47-4.64-7.95-4.52-11.8-4.51-15.56,0-.01,0-.03,0-.04,0-8.12-6.58-14.7-14.7-14.7s-14.7,6.58-14.7,14.7c0,3.77.14,7.62-4.53,15.62-.08.13-.16.26-.23.39-.07.12-.14.24-.22.37h0c-1.84,3.26-2.89,7.03-2.89,11.04,0,12.46,10.1,22.56,22.56,22.56s22.56-10.1,22.56-22.56c0-4.01-1.05-7.78-2.89-11.04Z"/>
    <path class="v" d="m42.56,46.17c-.06-.1-.12-.2-.18-.31-.09-.16-.18-.32-.28-.47-.91-1.56-1.64-2.97-2.22-4.24H5.9c-.58,1.28-1.31,2.69-2.23,4.26-.08.13-.16.26-.23.39-.07.12-.14.24-.22.37h0c-1.84,3.26-2.89,7.03-2.89,11.04,0,12.46,10.1,22.56,22.56,22.56s22.56-10.1,22.56-22.56c0-4.01-1.05-7.78-2.89-11.04h0Z"/>
    <path class="aa" d="m42.56,46.17h0c-.06-.1-.12-.2-.18-.31-.09-.16-.18-.32-.28-.47-.91-1.56-1.64-2.97-2.22-4.24h-6.37c7.3,12.89,8.24,29.71-7.46,38.39,10.96-1.54,19.39-10.95,19.39-22.33,0-4.01-1.05-7.78-2.89-11.04Z"/>
    <circle class="t" cx="16.66" cy="54.86" r="11.94"/>
    <g>
      <path class="y" d="m22.89,70.86c-6.07,0-11.01-4.94-11.01-11.01,0-4.23,2.36-8.02,6.16-9.89.59-.29,1.3-.05,1.59.54.29.59.05,1.3-.54,1.59-2.98,1.47-4.83,4.44-4.83,7.76,0,4.76,3.88,8.64,8.64,8.64s8.64-3.88,8.64-8.64c0-3.32-1.85-6.29-4.83-7.76-.59-.29-.83-1-.54-1.59.29-.59,1-.83,1.59-.54,3.8,1.87,6.16,5.66,6.16,9.88,0,6.07-4.94,11.01-11.01,11.01Z"/>
      <path class="y" d="m22.92,61.54c-.65,0-1.18-.53-1.18-1.18v-12.64c0-.65.53-1.18,1.18-1.18s1.18.53,1.18,1.18v12.64c0,.65-.53,1.18-1.18,1.18Z"/>
    </g>
    <g>
      <path class="u" d="m18.59,49.85c.44,0,.86.24,1.06.66.29.59.05,1.3-.54,1.59-2.98,1.47-4.83,4.44-4.83,7.76,0,4.76,3.88,8.64,8.64,8.64s8.64-3.88,8.64-8.64c0-3.32-1.85-6.29-4.83-7.76-.59-.29-.83-1-.54-1.59.21-.42.63-.66,1.06-.66.18,0,.35.04.52.12,3.8,1.87,6.16,5.66,6.16,9.88,0,6.07-4.94,11.01-11.01,11.01s-11.01-4.94-11.01-11.01c0-4.23,2.36-8.02,6.16-9.89.17-.08.35-.12.52-.12m0-.74c-.29,0-.58.07-.85.2-4.05,1.99-6.57,6.03-6.57,10.55,0,6.48,5.27,11.75,11.75,11.75s11.75-5.27,11.75-11.75c0-4.51-2.52-8.55-6.57-10.55-.27-.13-.55-.2-.85-.2-.74,0-1.4.41-1.73,1.07-.23.46-.26.98-.1,1.47.17.49.51.88.97,1.11,2.73,1.34,4.42,4.06,4.42,7.09,0,4.36-3.54,7.9-7.9,7.9s-7.9-3.54-7.9-7.9c0-3.04,1.69-5.76,4.42-7.1.46-.23.81-.62.97-1.11s.13-1.01-.09-1.47c-.33-.66-.99-1.08-1.73-1.08h0Z"/>
      <path class="s" d="m22.95,46.53c.65,0,1.18.53,1.18,1.18v12.64c0,.65-.53,1.18-1.18,1.18s-1.18-.53-1.18-1.18v-12.64c0-.65.53-1.18,1.18-1.18m0-.74c-1.06,0-1.92.86-1.92,1.92v12.64c0,1.06.86,1.92,1.92,1.92s1.92-.86,1.92-1.92v-12.64c0-1.06-.86-1.92-1.92-1.92h0Z"/>
    </g>
    <path class="n" d="m19.34,3.87c3.45,3.45,2.89,9.62,2.89,9.62,0,0-6.17.57-9.62-2.89C9.15,7.15,9.72.98,9.72.98c0,0,6.17-.57,9.62,2.89Z"/>
    <path class="o" d="m16.66,40.01c6.7-.09,9.28,2.92,18.24,6.84,6.57,2.88,6.86-2.04,6.86-2.04,0,0,0,0,0,0-4.29-7.55-4.17-11.3-4.17-14.96,0-.01,0-.03,0-.04,0-8.12-6.58-14.7-14.7-14.7s-14.7,6.58-14.7,14.7c0,3.77.14,7.62-4.53,15.62-.08.13-.16.26-.23.39-.07.12-.14.24-.22.37h0c-.87,1.55-1.56,3.21-2.05,4.95.14-.29,5.31-10.99,15.49-11.12Z"/>
    <path class="x" d="m2.58,48.73c.94-1.65,2.09-3.19,3.44-4.57,1.35-1.37,2.91-2.57,4.69-3.43,1.76-.88,3.73-1.35,5.72-1.43,1.95-.07,3.95.18,5.83.79,1.88.62,3.59,1.52,5.26,2.41,1.66.92,3.32,1.8,4.98,2.67.83.43,1.68.84,2.52,1.25.83.39,1.69.73,2.57.9.87.19,1.8.18,2.59-.23.79-.4,1.35-1.23,1.55-2.15h0s-.13-.16-.13-.16l.16.15h0s0,.01,0,.01c-.05.95-.51,1.93-1.36,2.51-.85.58-1.94.69-2.91.59-.99-.1-1.94-.39-2.85-.74-.89-.34-1.76-.72-2.64-1.1-1.75-.75-3.44-1.63-5.13-2.47-1.68-.85-3.34-1.7-5.07-2.25-1.72-.58-3.52-.81-5.35-.8-1.8,0-3.59.38-5.27,1.08-1.68.7-3.25,1.71-4.67,2.91-1.43,1.19-2.72,2.58-3.92,4.04Z"/>
    <path class="p" d="m2.67,48.73c.82-1.6,1.87-3.08,3.06-4.44,1.22-1.34,2.62-2.53,4.21-3.44,1.57-.92,3.35-1.53,5.17-1.78.91-.13,1.83-.16,2.75-.12.91.03,1.83.14,2.73.31,1.81.35,3.52,1.07,5.13,1.88,1.61.83,3.17,1.7,4.74,2.57l2.35,1.31,2.38,1.25c.79.41,1.61.76,2.47.96.85.21,1.78.26,2.61-.12-.79.45-1.76.48-2.65.31-.9-.15-1.76-.46-2.59-.83l-2.44-1.14c-.8-.4-1.6-.82-2.4-1.23-1.6-.81-3.18-1.68-4.78-2.45-1.6-.78-3.24-1.46-4.96-1.78-1.72-.34-3.5-.43-5.24-.22-.87.11-1.73.29-2.56.55-.83.27-1.64.62-2.42,1.03-1.55.83-2.97,1.93-4.23,3.18-1.27,1.25-2.36,2.68-3.33,4.19Z"/>
    <path class="m" d="m37.59,29.84s0-.03,0-.04c0-8.12-6.58-14.7-14.7-14.7s-14.7,6.58-14.7,14.7c0,.11,0,.21,0,.32,1.85-2.42,5.84-5.72,12.3-1.68,9.33,5.84,16,12.03,17.17,4.68h0c-.09-1.16-.08-2.22-.08-3.28Z"/>
    <ellipse class="q" cx="21.02" cy="23.31" rx="9.2" ry="7.65" transform="translate(-6.89 8.95) rotate(-20.73)"/>
    <path class="r" d="m18.05,4.09c3,3,2.7,8.17,2.7,8.17,0,0-5.17.3-8.17-2.7-3-3-2.7-8.17-2.7-8.17,0,0,5.17-.3,8.17,2.7Z"/>
  </g>
</svg>